<?xml version="1.0" encoding="UTF-8" standalone="no"?>
<!-- Created with Inkscape (http://www.inkscape.org/) -->

<svg
   width="157.50571mm"
   height="159.17046mm"
   viewBox="0 0 157.50571 159.17046"
   version="1.1"
   id="svg270"
   inkscape:version="1.1.2 (0a00cf5339, 2022-02-04)"
   sodipodi:docname="logotyp_CzornyKot.svg"
   xmlns:inkscape="http://www.inkscape.org/namespaces/inkscape"
   xmlns:sodipodi="http://sodipodi.sourceforge.net/DTD/sodipodi-0.dtd"
   xmlns:xlink="http://www.w3.org/1999/xlink"
   xmlns="http://www.w3.org/2000/svg"
   xmlns:svg="http://www.w3.org/2000/svg">
  <sodipodi:namedview
     id="namedview272"
     pagecolor="#ffffff"
     bordercolor="#666666"
     borderopacity="1.0"
     inkscape:pageshadow="2"
     inkscape:pageopacity="0.0"
     inkscape:pagecheckerboard="true"
     inkscape:document-units="mm"
     showgrid="false"
     inkscape:zoom="0.67793911"
     inkscape:cx="314.18751"
     inkscape:cy="320.08774"
     inkscape:window-width="1920"
     inkscape:window-height="1044"
     inkscape:window-x="0"
     inkscape:window-y="0"
     inkscape:window-maximized="1"
     inkscape:current-layer="layer1" />
  <defs
     id="defs267">
    <linearGradient
       inkscape:collect="always"
       id="linearGradient3352">
      <stop
         style="stop-color:#ffffff;stop-opacity:1;"
         offset="0"
         id="stop3348" />
      <stop
         style="stop-color:#ffffff;stop-opacity:0;"
         offset="1"
         id="stop3350" />
    </linearGradient>
    <linearGradient
       id="linearGradient1834"
       inkscape:swatch="solid">
      <stop
         style="stop-color:#000000;stop-opacity:1;"
         offset="0"
         id="stop1832" />
    </linearGradient>
    <linearGradient
       inkscape:collect="always"
       xlink:href="#linearGradient3352"
       id="linearGradient3354"
       x1="28.78965"
       y1="145.04849"
       x2="187.48888"
       y2="145.04849"
       gradientUnits="userSpaceOnUse" />
  </defs>
  <g
     inkscape:label="Warstwa 1"
     inkscape:groupmode="layer"
     id="layer1"
     transform="translate(-29.041472,-65.36683)">
    <path
       class="fil0"
       d="m 51.328573,162.41094 c -0.4555,-0.1228 -0.8107,-0.496 -0.8149,-0.84 -0.0053,-0.7817 0.0282,-0.7807 -3.2657,0.2018 -2.9715,0.858 -4.6761,2.4374 -2.3171,1.9876 0.2738,-0.0462 0.9695,-0.6781 1.281,-0.7447 0.5397,-0.1097 1.0717,-0.2382 1.3984,-0.3369 2.4193,-0.3884 0.8908,1.4001 0.5267,1.4019 -0.6816,0.002 -5.262,2.117 -5.2592,2.4296 0.0017,0.4995 0.3552,0.4004 4.36,-1.0845 4.549,-1.6735 5.8074,-2.6151 4.0908,-3.0148 z m 80.450897,40.3401 c 0.8418,2.4607 -1.1126,4.5664 -1.2509,4.8776 -0.3196,0.7164 -1.421,2.2165 -1.7664,2.5417 -0.647,0.1905 -1.2731,0.5835 -1.5363,0.9208 l -2.4335,1.3229 c -0.169,0.3506 -0.3429,0.6928 -0.497,1.0389 -0.7328,0.2537 -1.2224,0.4233 -1.4066,0.4706 -0.0797,0.2011 -0.545,0.3574 -0.8798,0.4629 0.003,-0.1147 0.007,-0.2283 0.006,-0.3532 -0.1976,-0.4173 -0.2248,-1.4823 -0.0709,-2.7799 0.3185,-0.7838 1.4919,-4.3479 1.4904,-5.0031 -0.006,-1.2802 -0.291,-3.895 0.7913,-7.0527 1.3363,-3.9737 2.2751,-4.1677 0.9628,-6.847 -4.8903,-4.6303 -3.5716,-7.5594 -2.8801,-7.9792 0.6427,-0.6276 2.6525,2.08 2.951,3.2667 0.2917,2.5122 1.6605,2.4205 2.5477,4.1967 0.9151,1.7723 1.3741,3.4932 1.4415,4.1786 0.1009,0.7162 1.0548,1.5551 1.2827,2.0864 0.3817,1.235 0.581,2.703 1.2477,4.6513 z m -13.0291,0.6192 c -0.4456,6.3394 -0.949,9.0586 -1.8493,9.7821 -0.3852,0.3133 -1.6799,0.5073 -3.2325,0.5116 -2.4916,0.0134 -3.926,0.5789 -4.5349,1.7053 -0.2886,0.5147 -0.6784,1.215 -1.0562,1.9653 -2.0398,0.0731 -6.8616,0.2671 -8.387297,0.1852 -0.0145,-1.4206 0.0218,-2.5244 0.0353,-2.6511 0.1845,-1.778 -0.3024,-2.6314 -0.9924,-3.7221 -0.9747,-1.4923 0.9588,-3.8139 1.491897,-6.2227 0.4434,-1.936 1.0876,-7.9347 1.3815,-12.9314 0.1471,-2.3336 -0.114,-5.3347 2.4821,-4.8257 -0.3641,-1.6224 -1.7642,-3.7888 -0.0346,-9.9606 0.6283,-2.9083 0.8086,-4.6966 1.1293,-5.3884 0.3175,-0.7803 0.7828,-4.0964 0.7697,-6.2494 -0.0197,-3.1207 0.9504,-2.9792 1.5967,-2.8561 0.5507,0.0899 0.7161,0.5563 0.756,1.9946 0.0378,1.0911 -0.1714,3.6847 0.5525,5.3372 0.6882,1.5254 0.2353,4.8626 0.5323,6.1401 0.0766,0.3644 3.9903,5.7418 4.996,7.4958 1.0093,1.6513 3.4188,6.6777 4.1501,10.7615 0.4689,2.5911 0.5126,4.4644 0.2138,8.9288 z m -21.769197,-22.0568 c -0.2522,1.2803 -1.0213,3.6908 -1.1038,6.4689 -0.1281,5.5905 -0.0512,10.8769 -0.8368,14.7821 -0.4403,2.1573 -0.2237,2.8653 0.2727,5.1086 0.5348,2.6218 0.1778,1.8401 -0.659,2.5308 -0.4851,0.3771 -0.9028,0.7906 -1.4531,0.7948 -1.0044,0.005 -1.6803,-0.2667 -1.3342,-2.2659 0.1859,-1.126 0.1637,-5.7065 0.1379,-10.2922 -0.0279,-4.5929 -0.6547,-7.8786 -0.4935,-8.127 0.6106,-0.8763 0.5909,-3.6876 -0.0342,-5.6501 -0.5271,-1.7187 -0.5638,-2.8695 -0.2054,-7.681 0.4477,-6.4954 1.3921,-11.2166 2.2934,-11.5627 0.8404,-0.316 3.3927,2.4871 3.9251,4.577 0.4963,2.0888 0.0889,8.2529 -0.5091,11.3167 z m -8.3471,34.0943 c 0.1048,-0.6298 0.1824,-1.0453 0.2254,-1.039 0.5123,0.0776 0.809,0.5793 0.9607,1.3148 -0.3239,-0.0723 -0.7257,-0.1654 -1.1861,-0.2758 z m -17.2752,-42.8682 c -1.2534,1.2241 -3.0039,0.877 -3.0134,-0.5609 0.622,-0.9705 2.7192,-2.4899 3.4869,-2.461 0.8392,-0.008 0.4607,2.1124 -0.4735,3.0219 z m -0.4931,-26.8291 c -0.2897,0.001 -1.7082,0.7264 -3.1288,1.5759 -2.8349,1.6979 -3.513,1.8887 -3.8735,0.9867 -0.4301,-1.0605 0.1767,-2.3446 2.1099,-4.3501 1.6369,-1.7255 2.218,-2.0708 3.8316,-2.2977 2.3293,-0.3228 3.9183,0.4505 3.9274,1.9495 0.0053,0.9366 -1.6058,2.1297 -2.8666,2.1357 z m 0.0737,10.4592 c -0.6428,0.5023 -1.5723,1.3934 -1.827,1.8623 -1.0901,2.0344 -3.5271,3.1249 -5.5722,1.8545 -1.0707,-0.6822 -1.1031,-0.6801 -1.8425,0.2597 -0.3846,0.5316 -0.9292,1.191 -1.1543,1.4425 -0.2283,0.2797 -1.0344,0.503 -1.8422,0.5073 -1.0693,0.003 -1.6835,-0.3041 -2.594,-1.2372 -2.3114,-2.4247 -1.059,-4.0227 2.6007,-3.3832 1.0661,0.1814 2.3943,0.2068 2.9771,0.0773 1.548,-0.3496 3.4794,-1.8863 4.0227,-3.1708 0.5105,-1.2188 2.3163,-2.4454 3.6421,-2.4518 1.1634,-0.005 2.5121,1.143 2.5206,2.3298 0.0014,0.5609 -0.2569,1.3444 -0.931,1.9096 z m -20.9095,-5.8667 c -0.0085,-1.1226 1.6041,-2.5365 2.8952,-2.5414 3.3317,-0.0177 4.9608,2.4429 2.9045,4.4513 -1.4171,1.3469 -5.7905,-0.0677 -5.7997,-1.9099 z m 10.6849,3.078 c 2.5506,-0.7617 3.4139,-1.1801 3.4223,0.2864 0.0067,1.0598 -0.8526,1.7117 -1.7593,2.0588 -1.9353,0.792 -2.1562,0.8978 -2.8377,0.1528 -0.9797,-1.0259 -0.9571,-1.8641 1.1747,-2.498 z M 183.24187,75.024338 c -0.7109,-1.5843 -0.0145,-3.6403 2.3636,-3.9342 -0.7825,-0.339 -3.4237,-2.0641 -2.4617,-5.1699 -2.7298,1.6475 -5.6254,2.837 -9.326,1.8136 -0.6971,2.5587 -2.7355,7.862 -10.8525,3.1235 0.6755,0.611 1.6344,4.9901 -5.593,4.4334 -0.2293,2.2235 0.2332,6.0406 -4.3261,7.1786 1.452,1.5177 2.4754,7.6691 -2.1516,3.7137 0.1895,0.1602 -1.4933,-0.817 -1.6351,-0.6223 0.9673,2.7027 -1.3056,4.6175 -2.1029,5.1354 0.0321,0.0254 -1.4221,0.9042 -1.4609,0.9236 l -1.2298,0.6184 c 0.7737,2.1153 0.3645,5.0529 -1.5405,7.0062 -0.6223,5.725602 -1.3078,7.402702 -4.7322,4.072802 -0.0917,0.206 0.1813,1.6736 4e-4,2.8268 1.447,3.3828 1.0593,5.7267 0.068,7.8857 2.5781,2.7075 0.029,7.8136 0.393,11.0066 0.0568,1.7858 0.9793,2.4148 -1.1595,2.8928 -0.2943,-0.0279 -1.9671,-0.0494 -2.6184,-4.1621 -0.8586,-2.4878 0.5899,-4.8083 -1.6012,-5.3883 -2.2342,-1.0629 -0.5398,-3.133 -0.3232,-4.4775 0.1235,-0.9539 0.2738,-1.5977 0.0233,-3.314 -0.8392,0.2731 -3.4378,0.6146 -2.7513,-3.0166 -0.6784,0.003 -2.4472,-0.3489 -4.9294,-1.9773 -1.8319,-0.9564 -1.6908,-0.606 -2.6966,-0.5468 -0.3242,0.002 -2.1967,0.5941 -1.8898,-3.2967 -4.6722,2.8046 -4.2161,-3.230002 -1.8729,-4.584002 -4.5516,-0.6057 -4.2905,2.970802 -8.2046,0.6678 -0.8329,-0.1129 -2.0436,1.173 -2.8762,1.8507 -0.5475,0.333402 -6.7553,4.309902 -4.0629,-1.7149 -1.8122,0.864 -4.246397,4.123702 -5.946797,5.897402 -0.9006,0.5973 -4.4171,1.7939 -5.3188,2.6737 -0.931,0.8777 -1.4259,4.1808 -2.2345,4.7781 -0.8357,0.6286 -3.2868,-0.6622 -3.5719,0.2123 0.1104,5.2268 -2.2415,6.1595 -3.1058,7.4747 0.4723,3.3937 -1.2023,4.2012 -1.2023,4.2012 -2.1107,1.1384 -0.1962,2.528 -0.1076,3.7934 0.1326,1.2291 -0.7892,1.7385 -1.3677,2.1283 -0.3221,0.5952 -1.5427,0.3366 -1.2139,1.5939 0.5115,8.436 -0.7529,7.639 -2.8141,7.9075 0.0204,-0.1863 1.476,-11.9045 -2.7245,-18.9442 -0.9885,1.3349 -2.9884,4.1723 -3.0085,5.5803 0.0028,0.3743 -0.3278,1.3285 -1.1187,1.7759 -0.2568,0.4378 -0.889,1.0936 -1.3688,1.9071 -2.0239,5.933 -3.5013,5.1812 -5.7891,4.8274 -1.0597,0.9306 -2.3258,0.7553 -3.351,-0.1013 0,0 -1.3444,1.4274 -1.3455,1.4274 -1.2273,-0.0766 -3.4823,0.3005 -4.348,1.7688 -1.2195,3.2262 -4.1557,2.6769 -6.2565,-1.9844 -0.7842,-2.0447 -1.4785,-4.3656 -2.0613,-4.3624 -0.659,2.6515 -0.9472,2.0708 -1.052,6.1605 -1.0929,6.2601 0.4527,6.0678 1.1755,7.7502 0.4607,1.1529 0.7479,0.3274 1.0721,0.6692 0.8156,0.8703 0.7405,4.3367 -0.1556,6.0904 -0.417,0.7825 -0.8932,2.1897 -1.0174,3.0939 -0.2501,1.4375 -0.0377,3.2871 0.9028,4.4686 0.8166,0.9959 1.6277,1.0788 2.5661,1.0735 1.5843,-0.007 3.3027,0.7362 6.3581,3.3443 1.7547,1.476 1.283,1.7262 3.2216,2.0913 0.9383,0.1827 1.8298,-0.1528 2.8578,-1.0005 1.0315,-0.847 0.9543,-1.5325 2.5721,-1.6034 2.3597,-0.074 4.4059,0.3733 4.4006,-0.6258 -7e-4,-0.3439 3.0123,-3.1499 3.466,-3.5285 3.695,-0.8611 3.1856,3.1218 1.1254,5.5873 -1.1109,2.8639 -1.9209,2.8349 -2.6138,2.4913 -1.2559,-0.6254 -0.5828,0.6322 -0.5655,0.9868 0.0392,0.6822 -0.3524,1.8813 -1.5324,2.2877 -1.2263,0.7881 -3.5955,-0.0275 -3.4633,-1.3673 -0.3633,-1.3078 -1.1267,-0.1948 -0.8646,1.4827 -0.5521,4.7251 0.6491,3.1185 2.4461,3.5182 2.1707,0.3772 2.8547,1.8832 4.7061,1.6052 0.8417,-0.1302 1.3854,-1.0531 1.6715,-1.4302 0.738,-0.9712 1.3726,-1.8295 1.6164,-4.3282 0.5648,-1.215 0.9387,-5.425 1.0767,-5.968 0.7031,-1.2509 1.2015,-1.3673 2.1378,-1.3709 1.1649,-0.008 0.2406,-0.3697 1.2213,1.716 0.3606,0.7485 1.0714,1.6114 1.88,1.8273 0.6822,0.1521 3.5302,1.4059 3.8901,1.813 1.0389,1.0865 1.0149,2.4341 0.2476,3.8759 -0.5436,1.033 -0.2215,2.2282 0.2685,3.1944 0.6755,1.3053 0.9013,0.3299 0.5408,4.0319 0.1774,2.1844 -0.8756,7.4281 -0.1743,10.8903 0.4314,2.1241 0.822,8.3019 0.8498,12.9857 l 0.0851,6.8753 c -3.9303,-1.6122 -7.1484,0.7712 -8.9701,2.7058 -2.8448,-1.107 -5.7538,-2.4486 -8.2977,-4.0361 -0.4378,0.1206 -1.5004,-1.058 -1.9438,-1.1691 -0.8499,-0.212 -1.0587,-0.6618 -3.0219,-1.9939 -0.9994,-0.8188 -1.9156,-1.4729 -2.0419,-1.4817 -2.2267,-0.1513 -7.6267,-6.95 -9.2025,-8.5936 -4.2009,-4.5029 -10.3798,-13.2691 -11.8022,-16.7415 -1.7244,-4.2647 -3.5469,-8.2969 -4.8087,-12.7649 -1.5131,-5.3855 -2.091,-9.0198 -2.3365,-14.6657 -0.2766,-6.1129 0.0102,-3.4981 2.0207,-16.6482 0.2145,-1.2369 0.8633,-3.4915 1.179,-4.3445 1.1624,-3.3366 3.1274,-8.0807 3.2117,-8.3167 1.0887,-3.2089 2.1572,-5.7478 5.5333,-10.0531 0.8834,-1.16 2.5883,-3.2011 3.3613,-4.1805 3.0614,-3.9197 3.3133,-4.6785 4.3709,-5.1392 0.6272,-0.2695 3.091,-3.065302 3.109,-3.314402 0.0589,-0.8392 6.7631,-6.4417 8.2653,-6.841 0.7838,-0.2283 2.3907,-1.1702 2.4101,-1.4496 0.0216,-0.3122 1.1071,-0.744 1.4986,-0.8431 0.0713,-0.0166 5.9465,-2.9207 7.3438,-3.671 1.4005,-0.7811 2.3897,-0.6259 3.4336,-0.8686 1.0756,-0.2713 0.9215,-0.3097 1.2859,-0.4734 1.6594,-0.8259 4.6249,-1.354 6.3701,-1.5798 0.7214,-0.3718 5.3361,-4.1088 10.2803,-1.5783 4.706697,-1.3398 5.095497,-1.7639 12.014197,-0.8283 2.7615,0.3739 5.3858,1.0925 5.9344,1.0051 0.5803,-0.0551 3.5098,0.5175 5.0962,1.1564 1.5886,0.6381 3.4537,1.2026 3.8023,1.2259 0.9881,0.0663 4.8637,0.8925 7.7378,2.3996 1.3575,0.7475 4.9484,3.0744 5.8265,3.3827 1.1105,0.4008 0.9828,-0.5697 3.907,2.0405 0.6724,0.8273 0.1612,-1.2393 1.076,-2.0711 0.999,-0.9084 1.9625,-2.0578 1.9215,-2.0349 -0.4822,0.2699 -5.7238,-3.6001 -9.7687,-5.2941 -0.8763,-0.3083 -2.2768,-0.9038 -3.1168,-1.2721 -2.7023,-1.1836 -5.7623,-2.3587 -6.7995,-2.6169 -6.0427,-1.5335 -8.1167,-2.1103 -8.8963,-2.4444 -0.5267,-0.2547 -3.5384,-0.7084 -6.7165,-1.0788 -6.3289,-0.677 -7.3569,-0.6223 -18.119397,1.1843 -6.6467,1.1144 -14.9497,3.9299 -19.8201,6.696 -0.9663,0.5296 -1.862,0.9684 -1.989,0.9596 -0.1277,-0.0085 -1.7988,0.9733 -3.7101,2.189 -4.861,3.0797 -12.6044,9.3405 -14.5027,11.7443 -0.8785,1.0975 -4.0457,3.369002 -5.3044,4.878202 -3.0014,3.5186 -8.0137,11.2296 -10.081,16.0602 -1.6887,3.9825 -3.0399,7.3763 -4.2199,13.7051 -0.4061,2.1301 -0.895,3.4251 -1.0277,3.9472 -0.6674,2.2073 -1.8213,11.3351 -1.4957,14.0134 0.8353,4.4499 0.8322,6.8873 0.9835,8.3979 0.2589,2.2373 2.5675,10.7498 3.8605,14.2444 0.1608,0.4488 2.3512,5.715 2.6437,6.5801 1.2283,3.4861 3.4988,7.0873 3.9952,7.3077 0.4621,0.187 2.9118,4.4771 4.6058,6.8482 5.974,8.3287 9.3607,11.9891 18.0143,16.7093 1.6027,0.92 3.5997,1.8803 3.7059,2.2003 0.199,-0.0117 2.9129,1.8143 3.1479,1.9215 1.676,0.7726 3.3753,1.5516 5.0927,2.2853 -0.0046,1.8175 0.5803,3.8972 3.291,3.8732 -1.8327,-2.3869 0.2247,-2.982 1.9519,0 0.157,-1.2548 1.6475,-1.9876 3.3274,0.3517 -0.1051,-0.1983 -0.2741,-0.7144 -0.3503,-1.3028 1.1561,0.3037 2.3164,0.5556 3.4805,0.7359 0.0015,3e-4 0.0032,7e-4 0.005,0.001 0.0388,0.4787 0.0095,0.8982 -0.114,1.1483 0.229,0.0586 0.4491,-0.357 0.6534,-1.0118 0.6611,0.1665 1.3215,0.3203 1.9798,0.4611 -0.1852,1.2086 -0.4022,2.2553 -0.5179,2.7771 2.9333,-4.1184 3.1284,-1.0696 3.4667,0.1859 1.1483,-2.3322 2.7161,-3.2494 4.7064,0.3619 -0.1506,-0.6667 0.9769,-3.442 3.109097,-0.2533 -0.1775,-0.4332 -0.3108,-1.0495 -0.412097,-1.7568 2.552397,0.1192 4.942397,0.0893 7.076797,-0.03 0.0917,0.3115 0.218,0.7035 0.3982,1.2101 0.1179,-0.6354 0.3257,-1.039 0.5807,-1.2718 0.4128,-0.0293 0.8135,-0.0617 1.2033,-0.097 0.4057,0.1996 0.8079,0.5771 1.1275,1.0421 1.0605,-1.6775 2.5326,-1.4348 3.6022,-0.1813 0.8315,-0.9843 2.1982,-1.143 2.8769,-0.3761 0.0977,0.1072 0.3461,-1.3614 0.4481,-1.9205 l 7.1998,-1.56 c 0.1954,-0.06 0.4018,-0.1263 0.6135,-0.1958 0.2857,0.399 0.6244,0.8234 1.0276,1.2778 0.0953,-8e-4 0.278,-0.375 0.1087,-1.6218 -0.002,-0.0162 -0.004,-0.0303 -0.006,-0.0465 0.6526,-0.2343 1.3518,-0.4989 2.0803,-0.7853 0.1454,0.4561 0.2731,1.0315 0.3542,1.7611 0.004,0.3718 0.8685,-4.5128 3.0134,-0.7497 0.127,-0.2215 0.1676,-3.0311 2.5898,-0.9211 0.3609,-0.8026 -0.0455,-1.8016 -0.3415,-2.4606 3.9687,-1.772 7.5688,-3.5659 8.3601,-4.1875 2.2578,-1.5032 5.7517,-5.3072 9.0315,-7.1349 4.1254,-2.164 8.0151,-7.7001 10.4598,-11.5066 0.6142,-0.9885 3.3902,-4.2735 3.8333,-4.6824 1.1289,-1.0164 3.6865,-6.767 5.4159,-10.4338 0.4928,-1.0922 4.1031,-11.4917 4.07,-12.9949 3.1055,-11.3887 2.2683,-18.5406 0.2691,-30.2436 -0.8001,-4.5558 -3.284,-13.1364 -5.0172,-15.8482 -0.7454,-1.192 -0.9617,-2.0384 -1.7445,-3.4004 -0.744,-0.1112 -3.5359,4.6623 -2.7897,5.5171 0.2194,0.2508 -0.1535,0.3326 0.6127,1.7342 1.3713,2.4987 2.8247,6.2516 2.7902,6.7204 1.1991,1.9939 0.9398,1.5448 1.0304,2.9401 0.079,1.1941 -0.442,1.4206 -0.2208,2.3724 0.5119,4.8031 1.1225,3.5472 1.791,13.0193 -0.3496,5.0087 0.1482,6.1958 -0.9581,12.1348 -0.3242,0.9493 -1.077,5.0271 -1.2337,5.8911 -2.4394,9.5278 -2.9891,7.2809 -3.1813,10.2838 -0.0455,0.6833 -4.783,10.5562 -5.8611,11.7637 -5.5245,6.0678 -8.1879,11.3499 -15.3208,15.9717 -2.0203,1.3 -6.465,3.9151 -10.0414,5.8674 l 0.2166,-1.3371 c 0.1069,-1.9032 0.4247,-3.1905 0.7429,-4.2545 0.3493,-1.0629 0.3553,-7.8232 1.0757,-8.4098 0.388,-1.5392 1.7885,-2.0483 0.0885,-3.1002 -2.189,-1.5082 -5.6275,-4.9841 -3.5793,-8.2931 -3.6939,0.7369 -2.3061,-5.0264 0.7528,-5.7993 -1.0107,-1.2439 -3.6572,-5.2638 0.2417,-4.6976 -0.242,-1.063 0.0476,-4.4937 0.9363,-5.4794 0.6759,-0.7539 2.2856,-2.4705 1.8916,-3.3112 -0.7186,-1.5275 -0.8192,-2.6839 0.4974,-4.0319 0.6442,-0.6589 0.7514,-1.2752 0.75,-1.5553 -0.003,-0.6252 0.048,-1.8197 0.6935,-1.8236 0.2597,4e-4 1.4179,-0.9673 1.6733,-1.4065 0.5267,-0.9744 0.7038,-1.8503 0.544,-2.2937 -0.688,-1.7135 -3.0202,-4.0443 -1.9555,-5.0172 1.0608,-0.9734 3.7948,-1.3914 3.1383,-3.0745 -0.3595,-0.9035 -0.266,-1.1853 0.5708,-2.0648 0.3694,-0.7363 2.7601,-0.9229 2.6194,-2.4444 -0.1859,-2.0119 0,-2.0394 0.8957,-2.6727 1.7233,-2.0274 0.7623,-3.2681 2.6663,-3.8064 1.2936,-0.3863 4.1822,-1.6627 4.2407,-3.2227 -0.1622,-2.8807 1.2312,-0.5051 2.6159,-2.1304 1.3575,-1.349 2.3149,-3.8675 2.7379,-5.0863 -3.9529,-3.7282 0.6738,-5.5774 1.936,-3.5222 2.4988,-6.1923 4.4232,-7.106 6.9268,-7.4129 -1.2728,-1.808 0.5698,-5.2222 3.7285,-4.4686 0.5825,-5.805 2.7722,-5.7873 3.64,-6.3465 -1.3335,-2.960502 -1.8644,-8.362902 2.2123,-8.647302 -1.433,-3.4583 -2.5139,-5.4744 3.0518,-5.2038 -1.0886,-3.5475 -0.5485,-6.1436 4.3808,-8.527 -2.8822,-1.0047 -2.9047,-2.4169 -1.9141,-4.5759 z M 55.330873,168.34394 c 0.8347,-1.0936 0.9902,-2.1399 -0.0148,-2.8547 -1.6563,-1.0855 -2.1068,-1.5882 -3.4805,0.7599 -0.7052,1.1875 -1.4094,2.5989 -1.5353,3.0964 -0.1574,0.6575 -0.0593,0.9398 0.2974,0.9369 0.8717,-0.006 0.9387,-0.8932 1.7071,-2.4595 0.7983,-1.7523 1.4545,-2.2324 2.4003,-0.8647 -1.1032,1.1734 0.0116,2.1647 0.6258,1.3857 z m 77.633297,-57.8361 c 0.004,0.0275 0.007,0.0522 0.0113,0.0793 0.302,-0.098 0.3785,-0.1876 -0.0113,-0.0793 z m -48.928097,110.418 c -0.0223,-0.0322 -0.0441,-0.0576 -0.0664,-0.0886 0.0272,0.0515 0.0505,0.084 0.0664,0.0886 z"
       id="path91"
       style="clip-rule:evenodd;fill:#1f1a17;fill-rule:evenodd;stroke:url(#linearGradient3354);stroke-width:0.5;stroke-miterlimit:4;stroke-dasharray:none;stroke-opacity:1;image-rendering:optimizeQuality;shape-rendering:geometricPrecision;text-rendering:geometricPrecision" />
  </g>
</svg>
