<?xml version="1.0" encoding="UTF-8" standalone="no"?>
<!-- Created with Inkscape (http://www.inkscape.org/) -->

<svg
   version="1.1"
   id="svg840"
   xml:space="preserve"
   width="512"
   height="512"
   viewBox="0 0 512 512"
   sodipodi:docname="logotyp_dark_mode_czk.svg"
   inkscape:version="1.1.2 (0a00cf5339, 2022-02-04)"
   xmlns:inkscape="http://www.inkscape.org/namespaces/inkscape"
   xmlns:sodipodi="http://sodipodi.sourceforge.net/DTD/sodipodi-0.dtd"
   xmlns="http://www.w3.org/2000/svg"
   xmlns:svg="http://www.w3.org/2000/svg"><defs
     id="defs844" /><sodipodi:namedview
     id="namedview842"
     pagecolor="#ffffff"
     bordercolor="#666666"
     borderopacity="1.0"
     inkscape:pageshadow="2"
     inkscape:pageopacity="0.0"
     inkscape:pagecheckerboard="true"
     showgrid="false"
     inkscape:zoom="0.99532993"
     inkscape:cx="503.35068"
     inkscape:cy="179.83986"
     inkscape:window-width="1920"
     inkscape:window-height="1044"
     inkscape:window-x="0"
     inkscape:window-y="0"
     inkscape:window-maximized="1"
     inkscape:current-layer="g846" /><g
     id="g846"
     inkscape:groupmode="layer"
     inkscape:label="ink_ext_XXXXXX"
     transform="matrix(1.3333333,0,0,-1.3333333,0,793.70667)"><path
       id="rect1883"
       style="fill-rule:evenodd;stroke:#ffffff;stroke-width:0.056693"
       transform="scale(1,-1)"
       d="m 146.56322,-541.37871 31.27568,-6.1019 21.44346,10.00019 v 0 l 55.62465,12.34141 3.87547,-4.42058 15.40613,2.97981 7.61553,-13.63289 2.98763,0.3563 4.42624,1.01261 -4.59206,-6.95329 9.78223,-3.93179 3.37309,-9.79592 12.53493,-6.33612 -0.0786,-8.00745 9.62393,2.31745 11.14774,1.35608 3.91962,-11.75988 c 8.41545,-0.22758 1.0406,0.12959 11.3919,1.52664 1.82399,0.24617 6.99203,-3.60432 10.04368,-3.42773 3.42969,0.19847 3.49897,-5.74326 8.94857,-5.68093 v 0 l -2.70022,4.12443 -0.46861,6.77141 1.91683,4.67356 1.25006,0.5102 4.33568,4.88239 c -2.12524,-3.30559 -4.7251,-5.28758 -6.07638,-7.26238 -11.33876,-16.57078 3.07257,8.94592 1.28153,7.85316 l -3.99622,4.48799 -0.35859,6.32383 3.0002,6.26442 -14.85101,24.13667 -5.74618,14.14425 -1.40471,12.76955 -19.10706,29.80701 11.18639,78.53642 4.23779,34.32034 -44.57653,66.47557 -7.2471,9.44967 -14.39605,5.72344 -18.38703,13.11718 -3.62066,30.76867 -1.58316,1.45555 -1.95036,-2.51293 -4.50689,5.40911 -3.08527,-3.92173 -4.40865,2.10188 -7.2405,3.26954 -6.01627,-8.1075 -1.34003,0.28913 -5.95289,3.1989 -1.99026,8.20448 c 0.37306,-0.0266 -3.38257,1.78672 -5.66046,1.37046 -0.52499,-0.0959 -0.6542,0.32883 -1.11414,-0.13844 -0.49372,-0.50157 -3.28467,2.20249 -3.59075,1.74563 l -4.3213,-3.58002 -3.78662,7.46694 -2.80548,-4.07817 -3.58837,6.02022 -9.53826,-22.97805 -7.36736,13.653 -12.43397,1.33373 -19.54988,-0.15713 -12.67799,-7.89788 h -4.45311 l -17.59132,-33.8948 -30.716059,-17.52323 -28.740422,-41.42027 -22.762216,-79.45781 19.976578,-76.68951 63.465069,-42.46687 z"
       sodipodi:nodetypes="ccccccccccccccccccsscccccccscccccccccccccccccccccccccsscccccccccccccccccc" /><path
       d="m 99.314755,385.90335 c -3.02463,-0.0132 -7.14505,-2.81208 -8.30949,-5.59247 -1.23837,-2.9309 -5.64528,-6.43609 -9.17688,-7.23351 -1.32947,-0.29441 -4.35807,-0.23764 -6.79124,0.17691 -8.34778,1.45885 -11.20607,-2.18629 -5.93177,-7.71671 2.07671,-2.13084 3.47747,-2.83188 5.91725,-2.82396 1.84303,0.0106 3.68078,0.51885 4.20227,1.15783 0.51357,0.57298 1.7559,2.07804 2.63253,3.29 1.68725,2.14405 1.76118,2.14933 4.2036,0.59278 4.66567,-2.89789 10.22514,-0.40926 12.71112,4.23 0.5809,1.07071 2.702495,3.10253 4.169265,4.24849 1.53674,1.28986 2.12688,3.07612 2.12292,4.35674 -0.0198,2.70778 -3.09593,5.32447 -5.749575,5.3139 z m 1.037695,23.50924 c -3.680785,-0.51752 -5.006285,-1.3057 -8.741205,-5.24129 -4.41087,-4.5759 -5.79315,-7.50416 -4.81222,-9.92281 0.82118,-2.05955 2.36848,-1.62387 8.83494,2.24967 3.24116,1.93809 6.477025,3.59233 7.138455,3.59497 2.87545,0.0132 6.55227,2.7355 6.53907,4.87163 -0.0198,3.41938 -3.64514,5.18452 -8.95904,4.44783 z m 4.62474,-63.62954 c -1.75193,0.0647 -6.536425,-3.4009 -7.954345,-5.6136 0.0224,-3.28208 4.014795,-4.07289 6.874405,-1.28062 2.13084,2.0754 2.99427,6.91138 1.07994,6.89422 z m -43.131725,49.6312 c -2.94543,-0.0106 -6.62357,-3.23719 -6.60509,-5.7971 0.0211,-4.2036 9.99806,-7.43023 13.23129,-4.35807 4.69076,4.5825 0.97301,10.1961 -6.6262,10.15517 z m 21.56454,-18.16893 c 2.06748,0.79081 4.02801,2.27871 4.01217,4.69604 -0.0185,3.34677 -1.98826,2.39093 -7.80649,0.65219 -4.86371,-1.44433 -4.9152,-3.35601 -2.68006,-5.69809 1.55523,-1.69913 2.05823,-1.45621 6.47438,0.34986 z M 353.50421,531.45548 c -12.69661,0.61655 -10.23043,-3.98312 -6.96155,-11.87146 -9.30098,-0.64955 -8.08902,-12.97253 -5.04722,-19.7268 -1.98034,-1.27665 -6.97475,-1.23441 -8.30289,-14.47758 -7.20579,1.71893 -11.4107,-6.07039 -8.50621,-10.19477 -5.71129,-0.69972 -10.10236,-2.78436 -15.80177,-16.90944 -2.87941,4.68812 -13.4346,0.47 -4.41747,-8.03621 -0.96376,-2.78039 -3.14874,-8.52469 -6.24466,-11.60213 -3.1593,-3.70851 -6.3384,1.71101 -5.96742,-4.85975 -0.13334,-3.55933 -6.7239,-6.47174 -9.6746,-7.35233 -4.34354,-1.22781 -2.15197,-4.05837 -6.08228,-8.68444 -2.04371,-1.44432 -2.46882,-1.50638 -2.04371,-6.0968 0.32214,-3.47087 -5.13303,-3.8973 -5.97533,-5.57531 -1.90905,-2.00806 -2.1216,-2.64969 -1.30174,-4.71188 1.49713,-3.83921 -4.73961,-4.79109 -7.1609,-7.01303 -2.4279,-2.22062 2.89393,-7.53584 4.46236,-11.44503 0.36306,-1.01261 -0.0396,-3.00879 -1.24101,-5.23337 -0.58354,-1.00205 -3.22531,-3.20946 -3.81677,-3.20814 -1.47338,-0.009 -1.58955,-2.73419 -1.58295,-4.16003 0.004,-0.63767 -0.2416,-2.04503 -1.71101,-3.54745 -3.00352,-3.07612 -2.7738,-5.71525 -1.1354,-9.198 0.89907,-1.91829 -2.77247,-5.83407 -4.31449,-7.55433 -2.02655,-2.24834 -2.68798,-10.07463 -2.13613,-12.49988 -8.89435,1.2925 -2.85564,-7.87778 -0.55053,-10.71627 -6.97739,-1.76382 -10.14461,-14.91061 -1.71761,-13.22865 -4.67228,-7.54904 3.17118,-15.47831 8.16559,-18.91882 3.8775,-2.40017 0.68255,-3.56196 -0.20332,-7.07376 -1.64236,-1.33871 -1.65688,-16.76025 -2.45297,-19.18419 -0.72613,-2.42657 -1.45093,-5.36407 -1.69517,-9.70629 l -1.48129,-9.15444 c -0.10694,-7.61505 -5.44593,0.13071 -2.43978,-7.00115 0.47264,-1.23177 2.31039,-4.33429 1.25157,-6.68825 -5.52514,4.81353 -5.61887,-1.59484 -5.90668,-2.10048 -4.89407,8.5841 -6.86649,-2.55992 -6.87441,-1.71101 -0.50565,4.53893 -1.80343,6.48626 -2.54936,7.33517 -0.5096,0.56901 -1.47733,0.77629 -2.28398,0.4898 -1.10635,-0.36702 -1.24762,-1.49978 -0.70897,-5.70601 0.38683,-2.84377 -0.0304,-3.69663 -0.24688,-3.69795 -7.89626,8.89303 -5.28882,12.85635 -3.055,17.49033 l 5.55155,3.01804 c 0.59938,0.76969 2.02918,1.6648 3.50519,2.10048 0.78686,0.74196 3.30057,4.16398 4.02933,5.79842 0.31685,0.70896 4.77393,5.51326 2.85433,11.12686 -1.52222,4.44387 -1.97638,7.79328 -2.84773,10.61064 -0.51885,1.21197 -2.6959,3.12497 -2.92562,4.75941 -0.15446,1.56447 -1.2014,5.49082 -3.28868,9.53202 -2.02258,4.05309 -5.14623,3.84318 -5.81163,9.57427 -0.68123,2.70778 -5.26505,8.88511 -6.73182,7.45267 -1.57767,-0.95848 -4.58514,-7.64014 6.57076,-18.20194 2.99295,-6.11264 0.85154,-6.55491 -2.19686,-15.6209 -2.46882,-7.20314 -1.81927,-13.16792 -1.80474,-16.08825 0.004,-1.49582 -2.67346,-9.62576 -3.4009,-11.41467 -0.34986,-2.95994 -0.28781,-5.39047 0.16107,-6.34103 0.0396,-6.26843 -2.26023,-6.79652 -6.37669,-8.87719 -3.31244,-1.65821 -3.72699,-1.44433 -4.33562,-5.65849 -0.16503,-0.81722 -0.83966,-5.00497 -1.08786,-4.733 -1.54863,1.74929 -4.66568,1.38755 -6.56416,-0.85683 -2.43845,2.85829 -5.79711,3.41278 -8.21576,-0.41455 -2.07539,3.01407 -5.66904,4.49801 -6.64337,-0.74593 -1.94601,5.47894 -1.25949,5.33107 -1.443,5.49742 0.029,3.30584 3.49991,9.56371 5.28221,12.74017 1.38756,2.57047 4.6604,3.86033 10.34529,3.8907 3.54084,0.009 6.49418,0.45284 7.37345,1.16708 2.05295,1.65028 3.20154,7.85269 4.21812,22.31576 0.68123,10.18421 0.58222,14.4591 -0.48717,20.36842 -1.66876,9.31683 -7.16485,20.78298 -9.46733,24.54958 -2.29455,4.0016 -11.22323,16.26913 -11.3975,17.10087 -0.67859,2.91373 0.35647,10.52747 -1.2146,14.00626 -1.6516,3.77056 -1.175,9.68649 -1.26082,12.17643 -0.0898,3.28208 -0.46736,4.34354 -1.72421,4.5495 -1.47469,0.28121 -3.68739,0.60334 -3.64118,-6.51531 0.0291,-4.91124 -1.03242,-12.47612 -1.75722,-14.25711 -0.7314,-1.57767 -1.14199,-5.65716 -2.57576,-12.29129 -3.94483,-14.08019 -0.7512,-19.02312 0.0779,-22.72238 -5.92121,1.15915 -5.32579,-5.68621 -5.66245,-11.00804 -0.67067,-11.40014 -2.13876,-25.08427 -3.15005,-29.50042 -1.21725,-5.49609 -5.62812,-10.79151 -3.40354,-14.19637 1.57371,-2.48863 2.68533,-4.43464 2.26418,-8.49169 -0.0779,-0.7314 -0.87927,-14.62677 1.12879,-19.53404 -4.8637,7.27444 -7.58073,0.6984 -7.23747,-0.8225 -4.54025,8.23952 -7.58865,5.22941 -10.20929,-0.0911 -0.77102,2.86489 -0.83703,11.07537 -7.52925,1.68065 0.53338,2.40281 -5.79578,10.98031 0.53734,16.22952 2.54803,2.11236 0.82646,3.32961 -1.47866,3.67815 -0.41191,0.0634 -2.17837,-16.61635 -4.263,-16.0843 0.99281,2.0107 -0.60994,8.728 -2.69326,9.78154 -7.07904,1.27666 -4.9482,-7.01963 -4.20227,-8.43359 0.0475,-0.0673 0.0964,-0.13599 0.14522,-0.20596 0.004,-0.005 0.007,-0.0106 0.0106,-0.0145 l -0.001,0.001 c 0,0 0,-0.001 0.001,-0.001 -0.0356,0.009 -0.0885,0.0858 -0.14786,0.19671 -3.83394,5.34163 -7.23615,3.67023 -7.59394,0.80666 -3.94087,6.80444 -8.63426,5.44593 -4.45311,0 -10.95787,-0.0964 -6.68958,14.88025 -6.68958,14.88421 -0.24688,-0.53205 9.90828,16.68236 24.17067,10.83245 l -0.19275,15.68427 c -0.0647,10.68325 -0.95584,24.77797 -1.93941,29.6232 -1.60011,7.8989 0.8027,19.86014 0.39739,24.84398 0.8225,8.44548 0.30761,6.21958 -1.23441,9.19669 -1.11691,2.20477 -1.85228,4.93236 -0.61127,7.28896 1.7493,3.28868 1.80475,6.36216 -0.56505,8.84022 -0.82118,0.92944 -7.31933,3.78905 -8.87455,4.13759 -1.84436,0.49112 -3.46691,2.45958 -4.28941,4.16795 -2.23646,4.75809 -0.12807,3.93295 -2.78568,3.91446 -2.13612,-0.008 -3.27283,-0.27328 -4.87691,-3.12761 -0.31421,-1.23837 -1.16708,-10.843 -2.45694,-13.61416 -0.55581,-5.70073 -2.00278,-7.6573 -3.68738,-9.87396 -0.65219,-0.85946 -1.89321,-2.96522 -3.81281,-3.26227 -4.223395,-0.63371 -5.783905,2.8002 -10.736065,3.6623 -4.0993,0.91096 -6.83876,-2.75267 -5.57927,8.02565 -0.59806,3.82601 1.14332,6.3648 1.97242,3.38109 -0.30101,-3.055 5.10267,-4.91519 7.90022,-3.11837 2.69194,0.9268 3.585725,3.66231 3.495955,5.21885 -0.0396,0.8093 -1.575025,3.67683 1.28986,2.25098 1.58031,-0.78421 3.42862,-0.8489 5.96345,5.68357 4.7,5.62548 5.86048,14.70994 -2.56784,12.74545 -1.03373,-0.86211 -7.909455,-7.26388 -7.906815,-8.04941 0.0119,-2.27871 -4.65643,-1.25817 -10.03899,-1.42716 -3.69003,-0.16239 -3.51444,-1.72554 -5.86708,-3.65702 -2.34604,-1.93413 -4.37918,-2.69986 -6.51927,-2.28267 -4.42275,0.83306 -3.34677,1.4034 -7.34969,4.77129 -6.97079,5.94761 -10.89053,7.64542 -14.50399,7.62958 -2.1414,-0.0132 -3.992357,0.17691 -5.853874,2.44769 -2.146685,2.69458 -2.629887,6.91534 -2.05955,10.19478 0.282528,2.06219 1.369073,5.27166 2.320955,7.05792 2.043708,3.99896 2.214019,11.90711 0.35514,13.89272 -0.740646,0.78026 -1.395477,-1.1037 -2.446376,1.52618 -1.648961,3.83922 -5.17396,3.4009 -2.681376,17.68177 0.23896,9.32871 0.896432,8.00452 2.400168,14.05379 1.329466,0.005 2.912416,-5.2875 4.701323,-9.95317 4.79241,-10.63309 11.49123,-11.88598 14.27295,-4.52705 1.97505,3.34941 7.11865,4.21152 9.91885,4.03593 0.003,0 3.06952,3.25567 3.06952,3.25567 2.33944,-1.95393 5.22677,-2.35264 7.6441,-0.23104 5.21885,-0.80666 8.5907,-2.52295 13.20753,11.01199 1.09446,1.85756 2.536145,3.35337 3.121005,4.35146 1.80474,1.02054 2.55991,3.19759 2.55199,4.05177 0.0462,3.21211 4.60891,9.68385 6.86517,12.72961 9.58087,-16.05921 6.2605,-42.79112 6.2143,-43.21623 4.70132,0.61258 7.58601,-1.20537 6.41893,18.03823 -0.74857,2.86884 2.03447,2.2787 2.76983,3.63589 1.32022,0.88984 3.42334,2.05163 3.11969,4.85579 -0.20199,2.88601 -4.5693,6.05719 0.24556,8.65407 0,0 3.82073,1.84172 2.74343,9.58351 1.9711,2.99955 7.33649,5.12908 7.08433,17.05071 0.64955,1.99618 6.24334,-0.94793 8.14842,0.48584 1.84568,1.36247 2.97447,8.89831 5.09739,10.89977 2.05691,2.00674 10.07991,4.73697 12.13418,6.09944 3.87882,4.04649 9.43169,11.48199 13.56531,13.45441 -6.14168,-13.74486 8.02169,-4.67359 9.2693,-3.91315 1.89848,1.54599 4.66171,4.47953 6.56152,4.22208 8.92868,-5.25317 8.33325,2.9045 18.71682,1.52354 -5.34691,-3.08932 -6.38725,-16.85531 4.27225,-10.45882 -0.70104,-8.87323 3.57253,-7.52396 4.31053,-7.51868 2.29587,0.13467 1.97242,0.9334 6.15225,-1.24893 5.66244,-3.71379 9.69705,-4.51649 11.24435,-4.50989 -1.56578,-8.28045 4.35938,-7.50415 6.27635,-6.88233 -0.0106,0.0647 -0.0145,0.11618 -0.0251,0.18219 0.88983,0.24689 0.71424,0.0423 0.0251,-0.18219 0.57034,-3.90918 0.22972,-5.38387 -0.0515,-7.55828 -0.49508,-3.06821 -4.3607,-7.79065 0.73537,-10.2159 4.99969,-1.32155 1.69648,-6.61697 3.65438,-12.29129 1.48525,-9.38284 5.30202,-9.43169 5.97137,-9.49638 4.88087,1.09183 2.77644,2.52691 2.64573,6.60112 -0.83042,7.28368 4.98649,18.93202 -0.89511,25.10804 2.26155,4.92575 3.1461,10.27266 -0.15446,17.98938 0.41191,2.6312 -0.21256,5.97929 -10e-4,6.44797 7.81176,-7.59525 9.37491,-3.76924 10.79415,9.29175 4.34618,4.45575 5.27958,11.15721 3.51444,15.98264 l 2.80548,1.41132 c 0.0898,0.0436 3.40618,2.04898 3.33224,2.10707 1.82059,1.18028 7.0038,5.55023 4.7977,11.71436 0.32346,0.44359 4.16267,-1.78495 3.73096,-1.41924 10.55387,-9.02242 8.21971,5.01025 4.90859,8.47188 10.39941,2.59688 9.34587,11.30376 9.86736,16.37738 16.48697,-1.27005 14.30067,8.71877 12.75997,10.11292 18.51747,-10.80999 23.1673,1.28854 24.75685,7.12526 8.44284,-2.33416 15.04792,0.3789 21.27542,4.13758 -2.19553,-7.08564 3.8313,-11.02123 5.61492,-11.79357 -5.4248,-0.67067 -7.01303,-5.36143 -5.3918,-8.97488 -2.26022,-4.92576 -2.20873,-8.14711 4.36599,-10.43902 -11.24436,-5.43668 -12.47613,-11.36053 -9.99278,-19.45219 z M 67.333635,348.46046 c -1.40076,-1.77834 -3.94351,0.48452 -1.42716,3.16194 -2.15725,3.11969 -3.65439,2.0239 -5.4763,-1.97374 -1.75193,-3.57384 -1.90508,-5.59643 -3.89334,-5.61095 -0.81458,-0.005 -1.0377,0.63767 -0.67859,2.13876 0.2878,1.13408 1.89452,4.35278 3.50255,7.06188 3.1329,5.35748 4.16135,4.2102 7.93983,1.73478 2.29323,-1.6318 1.93677,-4.01744 0.033,-6.51267 z m -28.408596,4.18247 c -0.0079,0.71292 10.442976,5.53703 11.996886,5.54231 0.83174,0.005 4.31845,4.08477 -1.20009,3.1989 -0.745926,-0.22576 -1.959212,-0.51885 -3.190982,-0.76837 -0.711601,-0.15183 -2.298511,-1.59351 -2.921657,-1.69913 -5.382556,-1.02449 -1.493174,2.57708 5.284859,4.53365 7.5134,2.24174 7.43815,2.24438 7.45003,0.46076 0.009,-0.78421 0.81986,-1.63576 1.85887,-1.91564 3.91579,-0.91096 1.04562,-3.05897 -9.332664,-6.87838 -9.134634,-3.38637 -9.941292,-3.61213 -9.945252,-2.4741 z M 362.34707,556.5754 c -0.005,0.21651 0.062,0.97432 0.93076,2.86884 l 0.86343,1.88 -0.84627,1.88925 c -0.26536,0.58617 -0.27197,1.25025 -0.0238,1.69252 0.33137,0.59014 1.1684,0.80798 1.81135,0.88719 l 8.37022,3.14742 -7.11733,5.56739 c -0.28517,0.1241 -1.54334,0.83834 -2.44506,2.05691 -0.93868,1.26873 -1.13143,2.56387 -0.62446,4.19963 l 3.54744,11.45031 -10.26343,-6.19317 c -3.56328,-2.15065 -7.86325,-4.34882 -12.73488,-4.34882 -1.63312,0 -3.257,0.22972 -4.96669,0.70236 l -4.41483,1.2212 -1.20272,-4.42011 c -1.9447,-7.13581 -4.88616,-8.09826 -7.50812,-8.09826 -2.73815,0 -6.38461,1.28458 -10.54728,3.71512 l -6.63413,1.73609 c -0.34854,0.31553 0.75385,-8.46 0.71821,-8.37814 0.0502,-0.11618 0.23896,-0.81326 -0.0951,-1.32155 -0.49508,-0.75649 -2.44242,-1.63972 -6.29879,-1.63972 -0.74857,0 -1.55787,0.033 -2.39885,0.0977 l -4.43463,0.34194 -0.45416,-4.42276 c -0.0805,-0.77101 -0.1241,-1.54862 -0.17031,-2.37376 -0.31289,-5.49346 -0.75649,-8.66992 -6.26447,-10.04427 l -7.62429,-1.90244 5.4314,-5.67697 c 0.25216,-0.27329 0.51753,-0.79609 0.75781,-1.41924 -0.28385,0.17295 -0.5875,0.31421 -0.907,0.42247 -0.0343,0.0172 -0.07,0.0356 -0.10693,0.0528 -0.26669,0.13466 -0.5809,0.29309 -0.907,0.45152 -1.59087,0.76969 -2.75663,1.21328 -4.00688,1.21328 -1.55919,0 -2.96654,-0.705 -3.86034,-1.93545 l -1.42056,-1.95129 0.81326,-2.2721 c 1.24497,-3.4788 -2.54935,-6.06644 -2.98503,-6.35029 l -2.01466,-1.30702 v 0 c -0.11882,-0.0739 -0.22048,-0.13466 -0.33006,-0.20199 -2.09651,1.33475 -7.37345,4.82938 -8.78741,5.69413 -4.4518,2.72362 -9.98486,6.10868 -14.76143,8.11938 -2.39357,0.8489 -6.12717,2.47014 -7.22427,2.9507 -6.5404,2.86489 -13.07419,5.32183 -15.07301,5.82087 -13.85312,3.51444 -18.69042,4.85051 -20.71168,5.71525 l -0.0568,0.0251 -0.0145,0.007 c -0.83703,0.30761 -5.46309,1.175 -14.48947,2.2259 -5.6466,0.60466 -8.9564,0.89379 -12.42331,0.89379 -6.22618,0 -13.00818,-1.03506 -28.14191,-3.57517 -14.78256,-2.47806 -33.42017,-8.76893 -44.31598,-14.95682 l -0.0185,-0.009 -0.0185,-0.0106 c -3.10913,-1.70309 -4.41879,-2.2589 -5.11983,-2.43845 -0.867385,-0.43436 -3.799605,-2.15461 -7.728595,-4.65247 -10.75323,-6.81368 -28.31618,-21.00346 -32.40359,-26.17874 -1.12351,-1.40472 -3.24379,-3.1923 -5.69809,-5.26241 -2.38433,-2.01071 -5.08551,-4.28809 -6.449299,-5.92385 -6.685618,-7.83686 -17.993342,-25.23742 -22.582443,-35.96028 -3.895983,-9.19008 -6.857246,-16.77742 -9.452808,-30.68862 -0.720843,-3.78773 -1.552584,-6.46382 -2.048989,-8.06394 -0.146545,-0.47132 -0.273286,-0.88058 -0.331376,-1.11294 l -0.01584,-0.0607 -0.01716,-0.0581 c -1.454887,-4.80826 -3.976516,-25.0077 -3.325646,-30.76388 1.473371,-7.87514 1.82191,-13.10851 2.05295,-16.57674 0.06865,-1.03902 0.128061,-1.93545 0.204634,-2.69326 0.567697,-4.86107 5.81691,-24.18255 8.651433,-31.84646 0.128061,-0.35382 1.017893,-2.52955 1.877359,-4.63003 2.11764,-5.18056 3.770562,-9.23893 4.181152,-10.45221 2.524269,-7.16486 6.869128,-14.03531 7.99396,-15.23276 1.110309,-0.66935 2.204775,-2.30511 5.901404,-8.15766 1.754579,-2.77776 3.741517,-5.92517 5.360112,-8.18804 13.826717,-19.27924 21.173767,-26.94182 40.178407,-37.30691 l 0.0264,-0.0145 0.0251,-0.0145 c 1.11031,-0.63767 2.30776,-1.28458 3.46691,-1.91169 2.91374,-1.5737 4.45312,-2.42657 5.30863,-3.22531 0.85946,-0.44887 2.21137,-1.30438 4.738275,-2.93221 0.75913,-0.48981 1.69517,-1.09183 1.97374,-1.25422 2.00806,-0.92547 4.06497,-1.87208 6.15621,-2.81472 -0.53997,-3.59233 -0.71821,-9.19932 2.31699,-13.1864 1.47865,-1.94469 4.29865,-4.26037 9.33135,-4.26037 h 0.13466 l 1.78627,0.0145 3.34413,-3.9554 3.32828,4.00425 0.70896,0.007 -0.10562,0.1373 c 0.63371,-0.5809 1.30967,-0.88059 1.85756,-1.0377 l 6.18261,-2.50578 4.32902,-3.11309 6.01758,1.15519 c 0.0145,0.0211 0.0317,0.0449 0.0462,0.066 l 3.79037,-5.65321 4.44783,5.79447 c 0.3591,0.72876 0.67068,1.24101 0.91888,1.59351 0.41323,-0.47924 4.92576,-2.29323 5.65584,-3.61609 0,0 2.10972,2.79887 2.02259,2.853 0.005,-0.003 6.67637,-3.35865 6.67637,-3.35865 l 2.68534,6.02418 c -0.34458,0.84363 -0.60202,2.31964 -0.79346,4.08214 1.01262,-0.0198 2.02127,-0.0449 3.04048,-0.0449 1.25025,0 2.45298,0.0172 3.62534,0.0449 l -0.009,-1.00337 0.28252,-0.25481 c 0.23104,-1.0773 0.6654,-2.57047 1.44565,-4.76601 l 4.70792,-7.95171 3.58837,6.02022 2.80548,-4.07817 3.69531,5.84596 c 0.12278,0.19671 0.23104,0.33929 0.31949,0.44227 0.14919,-0.11354 0.34458,-0.28913 0.57034,-0.55185 l 3.48803,-4.08742 3.46691,4.10458 c 0.0647,0.0753 0.12939,0.13598 0.1888,0.18351 l 0.83438,-0.94396 2.08067,-0.0132 c 0.81854,0 3.56461,0.26536 4.57062,3.68607 0.10562,0.35778 0.21256,0.78949 0.33138,1.35851 0.18483,0.87399 0.36834,1.89188 0.50036,2.63517 0.0581,0.32477 0.1043,0.58617 0.13334,0.72876 l 0.0238,0.12278 0.0185,0.12542 c 0.10166,0.70368 0.18219,1.15124 0.2416,1.43245 0.2152,0.10957 0.47264,0.235 0.70236,0.34721 0.27989,0.13599 0.58486,0.28385 0.91756,0.4502 0.36306,0.18351 0.69312,0.3459 1.00865,0.50037 1.2014,0.58882 2.32227,1.19084 3.32432,1.90112 l 1.34003,0.28913 c 1.06278,-2.07936 2.58104,-4.23924 4.64191,-6.55756 l 1.37436,-1.54994 2.07011,0.0158 c 1.34663,0.009 2.62989,0.60731 3.52632,1.64104 0.0924,0.10694 0.18087,0.21784 0.26404,0.3327 0.59542,-0.28385 1.26346,-0.44096 1.97374,-0.44096 0.85683,0 2.74079,0.25085 3.91975,2.27211 l 2.9375,-5.15284 3.96859,6.93382 c 0.001,0.003 0.004,0.007 0.004,0.008 l 3.58177,-3.11969 2.52295,5.60832 c 1.5407,3.42466 0.27989,6.93514 -0.6205,8.99733 0.78553,0.77365 1.46148,1.9064 1.85359,3.52236 5.65716,2.67873 10.06143,4.96668 11.20475,5.86444 l 0.0858,0.066 0.0898,0.0607 c 1.92488,1.28194 4.44123,3.50123 7.10677,5.85387 4.20227,3.70455 8.963,7.90551 13.68148,10.5354 l 0.0304,0.0172 0.0304,0.0158 c 9.9096,5.19773 19.61589,20.29978 22.81876,25.28758 1.54202,2.46882 8.02168,10.13933 9.20328,11.23248 1.78759,1.60803 6.98795,12.77977 9.78287,18.78283 0.67991,1.45885 1.33343,2.86093 1.94205,4.15211 1.49185,3.32961 8.98281,25.59123 9.03298,28.45216 l -0.009,0.39739 0.1043,0.36966 c 7.10545,26.05067 4.84127,42.74095 0.55846,67.81202 -1.90509,10.83904 -7.49228,29.56643 -11.05424,35.14042 -1.00601,1.60935 -1.6318,2.9639 -2.23646,4.27357 -0.0317,0.0726 -1.50638,2.84112 -2.79624,5.26109 0.96772,0.37363 1.90376,0.49113 2.85301,0.60731 l 7.56092,0.92679 -4.38446,6.22882 c -0.15315,0.21652 -0.15843,0.90832 0.22575,1.64764 0.24821,0.48189 0.99545,1.60012 2.54144,1.60012 0.29837,0 0.61654,-0.0396 0.94924,-0.11882 l 5.07626,-1.21065 0.52149,5.19376 c 0.86343,8.59995 3.07084,9.57691 4.52969,10.2225 0.52017,0.22972 1.10767,0.48981 1.70441,0.87531 l 3.3032,2.12688 -1.61463,3.58177 c -1.92885,4.28281 -2.39621,9.84492 -1.02185,12.14343 0.32477,0.54393 0.81985,1.06014 2.22721,1.15784 l 6.32388,0.44227 -2.42525,5.85652 -0.41191,0.98621 c -0.59938,1.43508 -1.36379,3.26755 -1.70045,4.45311 0.56241,0.0924 1.43112,0.17823 2.73946,0.17823 0.5809,0 1.21857,-0.0172 1.89717,-0.0502 l 6.4889,-0.31554 -1.9064,6.21166 c -1.66481,5.42876 -2.03579,9.33795 7.61901,14.00494 l 6.0902,4.43596 -6.57472,3.98047 c -1.89716,0.66144 -2.50711,1.20273 -2.65233,1.35984 z M 154.55559,355.13156 c -2.05559,-0.7895 -4.2102,-11.55989 -5.23205,-26.37809 -0.81722,-10.97635 -0.73404,-13.60096 0.46868,-17.52202 1.42584,-4.47688 1.47205,-10.89054 0.0766,-12.88936 -0.36702,-0.56637 1.0641,-8.06261 1.12616,-18.53991 0.0594,-10.46146 0.11089,-20.91104 -0.3129,-23.47888 -0.78949,-4.56005 0.75121,-5.18056 3.04312,-5.16868 1.25685,0.009 2.20874,0.95321 3.31508,1.81267 1.90773,1.57503 2.72231,-0.20727 1.50242,5.77334 -1.13143,5.1172 -1.6252,6.73315 -0.62183,11.65363 1.79287,8.90887 1.61728,20.96913 1.90905,33.7225 0.18879,6.33707 1.94337,11.83581 2.51899,14.75747 1.36379,6.98927 2.29323,21.05098 1.16047,25.81699 -1.2146,4.76601 -7.03679,11.16118 -8.95376,10.44034"
       style="fill:#ffffff;fill-opacity:1;fill-rule:evenodd;stroke:none;stroke-width:0.132022"
       id="path852" /></g></svg>
