<?xml version="1.0" encoding="UTF-8" standalone="no"?>
<!-- Created with Inkscape (http://www.inkscape.org/) -->

<svg
   version="1.1"
   id="svg928"
   xml:space="preserve"
   width="16"
   height="16"
   viewBox="0 0 15.999999 16.000001"
   sodipodi:docname="logotyp_CzornyKot_16x16.svg"
   inkscape:version="1.1.2 (0a00cf5339, 2022-02-04)"
   xmlns:inkscape="http://www.inkscape.org/namespaces/inkscape"
   xmlns:sodipodi="http://sodipodi.sourceforge.net/DTD/sodipodi-0.dtd"
   xmlns="http://www.w3.org/2000/svg"
   xmlns:svg="http://www.w3.org/2000/svg"><defs
     id="defs932" /><sodipodi:namedview
     id="namedview930"
     pagecolor="#ffffff"
     bordercolor="#666666"
     borderopacity="1.0"
     inkscape:pageshadow="2"
     inkscape:pageopacity="0.0"
     inkscape:pagecheckerboard="0"
     showgrid="false"
     width="512px"
     inkscape:zoom="29.882412"
     inkscape:cx="11.277537"
     inkscape:cy="12.649581"
     inkscape:window-width="1920"
     inkscape:window-height="1044"
     inkscape:window-x="0"
     inkscape:window-y="0"
     inkscape:window-maximized="1"
     inkscape:current-layer="g934"
     units="px" /><g
     id="g934"
     inkscape:groupmode="layer"
     inkscape:label="ink_ext_XXXXXX"
     transform="matrix(1.3333333,0,0,-1.3333333,0,598.2)"><g
       id="g936"
       transform="matrix(0.00262362,0,0,0.00260345,0.20966004,436.8184)"><path
         d="m 624.617,1751.33 c -12.902,3.48 -22.98,14.06 -23.094,23.81 -0.156,22.16 0.79,22.13 -92.574,-5.72 -84.226,-24.32 -132.547,-69.09 -65.679,-56.34 7.753,1.31 27.484,19.22 36.308,21.11 15.305,3.11 30.383,6.75 39.645,9.55 68.582,11.01 25.25,-39.69 14.922,-39.74 -19.309,-0.07 -149.161,-60.01 -149.079,-68.87 0.051,-14.16 10.075,-11.35 123.594,30.74 128.945,47.44 164.621,74.13 115.957,85.46 z M 2905.12,607.832 c 23.85,-69.754 -31.54,-129.441 -35.46,-138.262 -9.06,-20.308 -40.28,-62.832 -50.07,-72.05 -18.34,-5.399 -36.09,-16.54 -43.55,-26.098 l -68.98,-37.5 c -4.79,-9.942 -9.72,-19.641 -14.09,-29.453 -20.77,-7.188 -34.65,-12 -39.87,-13.34 -2.26,-5.699 -15.45,-10.129 -24.95,-13.117 0.1,3.25 0.21,6.468 0.19,10.008 -5.61,11.82 -6.37,42.019 -2.01,78.8 9.03,22.211 42.29,123.25 42.25,141.821 -0.17,36.289 -8.25,110.41 22.43,199.918 37.88,112.64 64.49,118.14 27.29,194.089 -138.62,131.252 -101.24,214.272 -81.64,226.182 18.22,17.79 75.19,-58.96 83.65,-92.6 8.26,-71.21 47.07,-68.609 72.22,-118.96 25.94,-50.239 38.94,-99.02 40.86,-118.45 2.86,-20.3 29.9,-44.082 36.36,-59.14 10.82,-35.008 16.47,-76.621 35.37,-131.848 z M 2535.79,590.27 c -12.63,-179.692 -26.9,-256.77 -52.42,-277.282 -10.92,-8.879 -47.62,-14.386 -91.63,-14.496 -70.63,-0.383 -111.29,-16.41 -128.55,-48.344 -8.18,-14.589 -19.23,-34.437 -29.94,-55.718 -57.83,-2.059 -194.5,-7.559 -237.75,-5.239 -0.41,40.27 0.62,71.559 1,75.149 5.23,50.402 -8.57,74.59 -28.13,105.5 -27.63,42.308 27.18,108.121 42.29,176.398 12.57,54.883 30.83,224.922 39.15,366.563 4.18,66.148 -3.22,151.209 70.37,136.789 -10.32,45.99 -50.01,107.4 -0.98,282.34 17.81,82.45 22.92,133.14 32.01,152.75 9,22.12 22.19,116.12 21.82,177.15 -0.56,88.46 26.94,84.45 45.26,80.96 15.61,-2.55 20.3,-15.77 21.43,-56.54 1.07,-30.93 -4.86,-104.45 15.66,-151.29 19.51,-43.24 6.67,-137.84 15.09,-174.05 2.17,-10.33 113.1,-162.76 141.62,-212.48 28.61,-46.81 96.91,-189.289 117.64,-305.051 13.29,-73.449 14.53,-126.551 6.06,-253.109 z m -617.08,625.24 c -7.15,-36.29 -28.95,-104.62 -31.29,-183.37 -3.63,-158.468 -1.45,-308.32 -23.72,-419.019 -12.48,-61.152 -6.34,-81.223 7.73,-144.812 15.16,-74.321 5.03,-52.161 -18.68,-71.739 -13.75,-10.691 -25.59,-22.41 -41.19,-22.531 -28.47,-0.141 -47.63,7.563 -37.82,64.231 5.27,31.921 4.64,161.761 3.91,291.75 -0.79,130.191 -18.56,223.332 -13.99,230.371 17.31,24.839 16.75,104.529 -0.97,160.159 -14.95,48.72 -15.98,81.34 -5.82,217.73 12.69,184.12 39.46,317.95 65.01,327.76 23.82,8.96 96.17,-70.5 111.25,-129.74 14.08,-59.21 2.53,-233.95 -14.42,-320.79 z M 1682.1,249.059 c 2.97,17.851 5.17,29.632 6.39,29.453 14.52,-2.203 22.93,-16.422 27.23,-37.27 -9.18,2.047 -20.57,4.688 -33.62,7.817 z M 1192.41,1464.22 c -35.53,-34.7 -85.15,-24.86 -85.42,15.9 17.62,27.51 77.08,70.57 98.84,69.76 23.78,0.22 13.06,-59.88 -13.42,-85.66 z m -13.98,760.51 c -8.22,-0.03 -48.42,-20.59 -88.69,-44.67 -80.36,-48.14 -99.584,-53.55 -109.799,-27.97 -12.191,30.06 5.004,66.46 59.809,123.31 46.4,48.91 62.87,58.7 108.6,65.13 66.04,9.15 111.08,-12.78 111.34,-55.27 0.15,-26.54 -45.52,-60.36 -81.26,-60.53 z m 2.09,-296.48 c -18.22,-14.25 -44.57,-39.5 -51.79,-52.79 -30.9,-57.67 -99.98,-88.58 -157.949,-52.57 -30.355,19.34 -31.273,19.28 -52.234,-7.36 -10.895,-15.07 -26.336,-33.76 -32.723,-40.89 -6.469,-7.93 -29.316,-14.26 -52.215,-14.39 -30.312,-0.08 -47.714,8.63 -73.527,35.08 -65.527,68.73 -30.019,114.03 73.723,95.9 30.218,-5.15 67.859,-5.86 84.383,-2.2 43.878,9.92 98.632,53.48 114.032,89.89 14.47,34.55 65.66,69.32 103.24,69.5 32.98,0.13 71.21,-32.4 71.45,-66.04 0.04,-15.9 -7.28,-38.11 -26.39,-54.13 z m -592.711,166.3 c -0.243,31.82 45.468,71.9 82.07,72.04 94.437,0.5 140.625,-69.26 82.328,-126.18 -40.164,-38.18 -164.141,1.92 -164.398,54.14 z m 302.879,-87.25 c 72.304,21.59 96.773,33.45 97.011,-8.12 0.188,-30.04 -24.176,-48.52 -49.867,-58.36 -54.863,-22.45 -61.117,-25.45 -80.437,-4.33 -27.778,29.08 -27.137,52.84 33.293,70.81 z M 4363.9,4228.43 c -20.15,44.91 -0.41,103.19 67,111.52 -22.18,9.61 -97.05,58.51 -69.78,146.55 -77.38,-46.7 -159.46,-80.43 -264.36,-51.41 -19.76,-72.54 -77.54,-222.86 -307.63,-88.54 19.15,-17.32 46.33,-141.45 -158.54,-125.67 -6.5,-63.03 6.61,-171.24 -122.63,-203.49 41.16,-43.02 70.17,-217.39 -60.99,-105.27 5.37,-4.54 -42.33,23.15 -46.35,17.64 27.42,-76.61 -37.01,-130.89 -59.61,-145.57 0.91,-0.72 -40.31,-25.63 -41.41,-26.18 l -34.86,-17.53 c 21.93,-59.96 10.33,-143.23 -43.68,-198.6 -17.63,-162.3 -37.06,-209.84 -134.13,-115.45 -2.6,-5.84 5.14,-47.44 0.01,-80.13 41.02,-95.89 30.03,-162.33 1.93,-223.54 73.08,-76.74 0.82,-221.48 11.14,-311.99 1.61,-50.62 27.76,-68.45 -32.87,-82 -8.34,0.79 -55.76,1.4 -74.22,117.98 -24.34,70.52 16.72,136.3 -45.39,152.74 -63.33,30.13 -15.3,88.81 -9.16,126.92 3.5,27.04 7.76,45.29 0.66,93.94 -23.8,-7.74 -97.45,-17.42 -77.99,85.51 -19.23,-0.09 -69.37,9.89 -139.73,56.05 -51.93,27.11 -47.93,17.18 -76.44,15.5 -9.19,-0.05 -62.27,-16.84 -53.57,93.45 -132.44,-79.5 -119.51,91.56 -53.09,129.94 -129.02,17.16 -121.62,-84.21 -232.58,-18.93 -23.6,3.2 -57.92,-33.26 -81.52,-52.46 -15.52,-9.45 -191.49,-122.17 -115.17,48.61 -51.37,-24.49 -120.37,-116.89 -168.57,-167.17 -25.53,-16.93 -125.21,-50.85 -150.77,-75.8 -26.39,-24.87 -40.43,-118.5 -63.35,-135.43 -23.68,-17.82 -93.16,18.76 -101.25,-6.03 3.13,-148.15 -63.53,-174.59 -88.03,-211.87 13.39,-96.2 -34.08,-119.09 -34.08,-119.09 -59.83,-32.27 -5.56,-71.66 -3.05,-107.53 3.76,-34.85 -22.37,-49.28 -38.78,-60.33 -9.12,-16.87 -43.72,-9.54 -34.4,-45.18 14.5,-239.13 -21.34,-216.54 -79.78,-224.15 0.59,5.28 41.85,337.45 -77.22,537 -28.02,-37.84 -84.71,-118.27 -85.28,-158.18 0.08,-10.61 -9.29,-37.66 -31.71,-50.34 -7.28,-12.41 -25.2,-31 -38.8,-54.07 -57.37,-168.17 -99.25,-146.86 -164.104,-136.83 -30.036,-26.38 -65.922,-21.41 -94.985,2.87 0,0 -38.109,-40.46 -38.14,-40.46 -34.789,2.17 -98.711,-8.52 -123.246,-50.14 -34.579,-91.45 -117.809,-75.88 -177.36,56.24 -22.226,57.97 -41.902,123.75 -58.422,123.67 -18.683,-75.16 -26.851,-58.7 -29.82,-174.63 -30.98,-177.45 12.828,-172 33.316,-219.69 13.055,-32.69 21.2,-9.28 30.391,-18.97 23.113,-24.67 20.988,-122.93 -4.41,-172.64 -11.82,-22.18 -25.32,-62.07 -28.836,-87.7 -7.094,-40.75 -1.074,-93.18 25.59,-126.67 23.144,-28.23 46.133,-30.58 72.738,-30.43 44.906,0.2 93.617,-20.88 180.231,-94.8 49.734,-41.84 36.367,-48.93 91.316,-59.28 26.601,-5.18 51.867,4.33 81.012,28.36 29.238,24 27.05,43.44 72.906,45.45 66.893,2.1 124.893,-10.59 124.743,17.73 -0.02,9.76 85.39,89.3 98.25,100.02 104.74,24.42 90.3,-88.48 31.9,-158.37 -31.5,-81.18 -54.45,-80.36 -74.09,-70.62 -35.6,17.72 -16.52,-17.92 -16.03,-27.97 1.11,-19.34 -9.99,-53.33 -43.44,-64.85 -34.76,-22.34 -101.92,0.78 -98.17,38.76 -10.3,37.07 -31.94,5.52 -24.507,-42.03 -15.648,-133.94 18.395,-88.4 69.327,-99.73 61.54,-10.69 80.93,-53.38 133.41,-45.5 23.85,3.69 39.27,29.85 47.38,40.54 20.92,27.53 38.91,51.85 45.82,122.69 16.01,34.44 26.61,153.78 30.52,169.16 19.92,35.47 34.06,38.77 60.6,38.87 33.02,0.22 6.82,10.48 34.62,-48.64 10.22,-21.22 30.36,-45.68 53.29,-51.8 19.33,-4.31 100.07,-39.85 110.27,-51.39 29.45,-30.81 28.77,-69 7.02,-109.87 -15.41,-29.28 -6.28,-63.16 7.61,-90.55 19.15,-37 25.55,-9.35 15.33,-114.29 5.03,-61.93 -24.83,-210.56 -4.94,-308.7 12.23,-60.211 23.3,-235.328 24.09,-368.101 l 2.41,-194.887 c -111.42,45.699 -202.63,-21.863 -254.27,-76.703 -80.64,31.383 -163.1,69.41 -235.21,114.41 -12.41,-3.418 -42.53,29.98 -55.1,33.141 -24.09,6 -30.01,18.761 -85.657,56.519 -28.336,23.211 -54.301,41.75 -57.887,41.992 -63.113,4.301 -216.191,197.02 -260.856,243.61 C 549.398,965.27 374.246,1213.77 333.926,1312.2 c -48.871,120.89 -100.535,235.19 -136.309,361.84 -42.887,152.66 -59.265,255.68 -66.226,415.72 -7.844,173.28 0.289,99.16 57.277,471.92 6.082,35.05 24.473,98.97 33.422,123.15 32.953,94.58 88.648,229.06 91.039,235.75 30.863,90.96 61.152,162.93 156.848,284.97 25.043,32.88 73.367,90.74 95.281,118.5 86.777,111.11 93.922,132.62 123.902,145.68 17.778,7.63 87.617,86.89 88.125,93.95 1.668,23.79 191.715,182.59 234.295,193.93 22.22,6.46 67.77,33.16 68.32,41.08 0.61,8.85 31.37,21.09 42.48,23.9 2.01,0.47 168.56,82.79 208.17,104.06 39.7,22.14 67.74,17.74 97.33,24.62 30.49,7.69 26.12,8.78 36.45,13.42 47.04,23.41 131.1,38.38 180.57,44.78 20.45,10.54 151.26,116.47 291.41,44.74 133.42,37.98 144.44,50 340.56,23.48 78.28,-10.6 152.67,-30.97 168.22,-28.49 16.45,1.56 99.49,-14.67 144.46,-32.78 45.03,-18.09 97.9,-34.09 107.77,-34.75 28.02,-1.88 137.88,-25.3 219.35,-68.02 38.48,-21.19 140.27,-87.15 165.16,-95.89 31.48,-11.36 27.86,16.15 110.75,-57.84 19.06,-23.45 4.57,35.13 30.5,58.71 28.32,25.75 55.63,58.33 54.47,57.67 -13.67,-7.64 -162.25,102.06 -276.92,150.08 -24.83,8.74 -64.53,25.62 -88.34,36.06 -76.6,33.55 -163.34,66.86 -192.74,74.18 -171.29,43.47 -230.08,59.82 -252.18,69.29 -14.93,7.22 -100.3,20.08 -190.39,30.57 -179.4,19.2 -208.54,17.65 -513.62,-33.56 -188.41,-31.58 -423.77,-111.4 -561.83,-189.81 -27.39,-15.01 -52.78,-27.45 -56.38,-27.21 -3.62,0.25 -50.99,-27.58 -105.17,-62.04 C 902.191,3836.56 682.691,3659.09 628.883,3590.95 603.977,3559.84 514.195,3495.45 478.516,3452.67 393.438,3352.93 251.363,3134.35 192.758,2997.42 144.895,2884.53 106.594,2788.33 73.1367,2608.93 61.625,2548.55 47.7695,2511.84 44.0156,2497.04 25.0898,2434.47 -7.61719,2175.73 1.60547,2099.81 25.2891,1973.67 25.1953,1904.58 29.4883,1861.76 c 7.3398,-63.42 72.7817,-304.72 109.4257,-403.78 4.566,-12.73 66.656,-162 74.949,-186.52 34.821,-98.82 99.172,-200.9 113.242,-207.15 13.106,-5.31 82.547,-126.912 130.567,-194.119 169.34,-236.089 265.34,-339.851 510.641,-473.652 45.427,-26.078 102.037,-53.297 105.037,-62.367 5.64,0.328 82.58,-51.434 89.24,-54.473 47.51,-21.898 95.68,-43.98 144.36,-64.777 -0.13,-51.524 16.45,-110.481 93.29,-109.793 -51.95,67.66 6.37,84.531 55.33,0 4.45,35.57 46.7,56.34 94.32,-9.9688 -2.99,5.6208 -7.77,20.2498 -9.93,36.9298 32.76,-8.61 65.66,-15.75 98.66,-20.86 0.04,-0.011 0.09,-0.019 0.14,-0.039 1.1,-13.5699 0.27,-25.4605 -3.23,-32.5504 6.49,-1.6601 12.73,10.1211 18.52,28.6794 18.74,-4.718 37.46,-9.0778 56.12,-13.07 -5.25,-34.2578 -11.4,-63.9297 -14.68,-78.7187 83.15,116.7387 88.68,30.3203 98.26,-5.2813 32.56,66.1211 77,92.121 133.42,-10.25 -4.27,18.8984 27.69,97.5703 88.13,7.17969 -5.03,12.28121 -8.82,29.74221 -11.68,49.80081 72.35,-3.3907 140.1,-2.5391 200.6,0.8515 2.6,-8.832 6.18,-19.9414 11.29,-34.3007 3.34,18.0078 9.23,29.4492 16.46,36.0507 11.7,0.8282 23.06,1.75 34.11,2.75 11.5,-5.6601 22.89,-16.3632 31.96,-29.5429 30.06,47.5507 71.79,40.6718 102.11,5.1406 23.57,27.9023 62.31,32.4023 81.55,10.6523 2.77,-3.0312 9.81,38.5977 12.69,54.449 l 204.1,44.219 c 5.54,1.699 11.39,3.582 17.39,5.551 8.09,-11.313 17.69,-23.34 29.13,-36.219 2.7,0.02 7.88,10.629 3.08,45.969 -0.06,0.461 -0.11,0.859 -0.17,1.32 18.5,6.641 38.32,14.141 58.96,22.258 4.13,-12.938 7.75,-29.238 10.05,-49.918 0.12,-10.539 24.62,127.918 85.42,21.25 3.6,6.281 4.75,85.918 73.41,26.109 10.23,22.75 -1.29,51.071 -9.68,69.75 112.5,50.231 214.55,101.078 236.98,118.7 64,42.609 163.04,150.441 256.01,202.25 116.94,61.339 227.2,218.269 296.5,326.171 17.41,28.02 96.1,121.139 108.66,132.729 32,28.81 104.5,191.82 153.51,295.76 13.98,30.96 116.32,325.75 115.38,368.36 88.03,322.83 64.3,525.56 7.63,857.3 -22.68,129.14 -93.09,372.36 -142.22,449.24 -21.13,33.79 -27.26,57.78 -49.45,96.39 -21.09,3.15 -100.23,-132.16 -79.08,-156.4 6.22,-7.11 -4.36,-9.42 17.37,-49.15 38.87,-70.83 80.07,-177.21 79.09,-190.5 33.99,-56.52 26.64,-43.79 29.21,-83.34 2.24,-33.85 -12.54,-40.27 -6.26,-67.25 14.51,-136.15 31.82,-100.55 50.77,-369.05 -9.91,-141.98 4.2,-175.63 -27.16,-343.98 -9.19,-26.91 -30.53,-142.5 -34.97,-166.99 -69.15,-270.08 -84.73,-206.39 -90.18,-291.51 -1.29,-19.37 -135.58,-299.23 -166.14,-333.47 C 3565.13,876.59 3489.63,726.859 3287.44,595.852 3230.17,559 3104.18,484.859 3002.8,429.531 l 6.14,37.899 c 3.03,53.949 12.04,90.441 21.06,120.601 9.9,30.129 10.07,221.758 30.49,238.391 10.99,43.629 50.7,58.058 2.51,87.879 -62.05,42.75 -159.52,141.279 -101.46,235.079 -104.71,-20.89 -65.37,142.48 21.34,164.39 -28.65,35.25 -103.67,149.21 6.85,133.15 -6.86,30.14 1.35,127.39 26.54,155.33 19.16,21.37 64.78,70.03 53.62,93.85 -20.37,43.31 -23.22,76.09 14.09,114.3 18.27,18.68 21.31,36.15 21.26,44.09 -0.07,17.72 1.37,51.58 19.67,51.69 7.36,-0.01 40.19,27.41 47.43,39.87 14.93,27.62 19.95,52.45 15.42,65.02 -19.5,48.57 -85.61,114.63 -55.44,142.22 30.08,27.59 107.58,39.44 88.97,87.15 -10.19,25.61 -7.54,33.59 16.18,58.53 10.47,20.86 78.24,26.16 74.25,69.29 -5.27,57.03 0,57.81 25.39,75.76 48.85,57.47 21.61,92.64 75.58,107.9 36.67,10.95 118.55,47.13 120.21,91.35 -4.6,81.66 34.9,14.32 74.15,60.39 38.48,38.24 65.62,109.63 77.61,144.18 -112.05,105.68 19.1,158.1 54.88,99.84 70.83,175.53 125.38,201.43 196.35,210.13 -36.09,51.25 16.15,148.03 105.69,126.67 16.51,164.55 78.58,164.05 103.18,179.9 -37.8,83.92 -52.85,237.06 62.71,245.12 -40.62,98.02 -71.26,155.18 86.5,147.51 -30.85,100.55 -15.54,174.15 124.18,241.71 -81.69,28.48 -82.33,68.51 -54.25,129.71 z M 738.074,1583.15 c 23.664,31 28.078,60.66 -0.414,80.92 -46.953,30.76 -59.722,45.02 -98.656,-21.54 -19.988,-33.66 -39.949,-73.67 -43.52,-87.77 -4.468,-18.65 -1.683,-26.64 8.426,-26.56 24.707,0.17 26.61,25.32 48.387,69.72 22.637,49.67 41.226,63.28 68.039,24.51 -31.27,-33.26 0.332,-61.36 17.738,-39.28 z M 2938.71,3222.6 c 0.12,-0.78 0.21,-1.49 0.32,-2.25 8.56,2.78 10.73,5.32 -0.32,2.25 z M 1551.77,92.6484 c -0.63,0.9102 -1.25,1.6329 -1.88,2.5118 0.77,-1.461 1.43,-2.3907 1.88,-2.5118"
         style="fill:#231f20;fill-opacity:1;fill-rule:evenodd;stroke:none"
         id="path938" /></g></g></svg>
